<svg height="276" viewBox="0 0 432 276" width="432" xmlns="http://www.w3.org/2000/svg"><g fill="none" fill-rule="evenodd"><rect fill="#f4f8fe" height="64" rx="16" width="288" x="144" y="212"/><rect fill="#f4f8fe" height="176" rx="16" width="128" y="100"/><rect fill="#f4f8fe" height="192" rx="16" width="256" x="144" y="4"/><rect fill="#fff" height="220" rx="16" stroke="#36547f" stroke-width="4" width="268" x="82" y="22"/><path d="m96 20h240c8.837 0 16 7.163 16 16h-272c0-8.837 7.163-16 16-16z" fill="#36547f"/><rect fill="#0269fb" height="8" rx="4" width="32" x="128" y="68"/><rect fill="#0269fb" height="8" rx="4" width="32" x="140" y="132"/><rect fill="#0269fb" height="8" rx="4" width="8" x="128" y="132"/><rect fill="#fb341c" height="8" rx="4" width="80" x="128" y="84"/><g fill="#0269fb"><rect height="8" rx="4" width="40" x="212" y="84"/><rect height="8" rx="4" width="48" x="256" y="84"/><rect height="8" rx="4" width="48" x="128" y="100"/><rect height="8" rx="4" width="60" x="180" y="100"/><rect height="8" rx="4" width="60" x="244" y="100"/><rect height="8" rx="4" width="96" x="128" y="116"/><rect height="8" rx="4" width="76" x="228" y="116"/><rect height="8" rx="4" width="32" x="128" y="156"/><rect height="8" rx="4" width="32" x="140" y="204"/><rect height="8" rx="4" width="8" x="128" y="204"/><rect height="8" rx="4" width="48" x="128" y="172"/><rect height="8" rx="4" width="72" x="180" y="172"/><rect height="8" rx="4" width="48" x="256" y="172"/><rect height="8" rx="4" width="32" x="128" y="188"/><rect height="8" rx="4" width="40" x="164" y="188"/></g><rect fill="#fb341c" height="8" rx="4" width="96" x="208" y="188"/><path d="m160 8h-32v64h9.373a16 16 0 0 1 11.313 4.686l4.486 4.486a4 4 0 0 0 6.828-2.829z" fill="#fb341c"/><rect fill="#fb341c" height="72" rx="12" width="144" x="16"/><g fill="#fff"><rect height="8" rx="4" width="80" x="32" y="24"/><rect height="8" rx="4" width="28" x="116" y="24"/><rect height="8" rx="4" width="48" x="32" y="40"/><rect height="8" rx="4" width="60" x="84" y="40"/></g><path d="m288 108h32v64h-9.373a16 16 0 0 0 -11.313 4.686l-4.486 4.486a4 4 0 0 1 -6.828-2.829z" fill="#fb341c"/><rect fill="#fb341c" height="72" rx="12" width="144" x="288" y="100"/><rect fill="#fff" height="8" rx="4" width="56" x="304" y="124"/><rect fill="#fff" height="8" rx="4" width="52" x="364" y="124"/><rect fill="#fff" height="8" rx="4" width="80" x="304" y="140"/><rect fill="#fff" height="8" rx="4" width="28" x="388" y="140"/></g></svg>